<?xml version="1.0" encoding="utf-8"?>
<!-- Generator: Adobe Illustrator 20.1.0, SVG Export Plug-In . SVG Version: 6.00 Build 0)  -->
<svg version="1.1" id="레이어_1" xmlns="http://www.w3.org/2000/svg" xmlns:xlink="http://www.w3.org/1999/xlink" x="0px"
	 y="0px" viewBox="0 0 300 50" style="enable-background:new 0 0 300 50;" xml:space="preserve">
<style type="text/css">
	.st0{fill:#ffffff;}
	.st1{fill:#ffffff;}
	.st2{fill:#ffffff;}
	.st3{fill:#ffffff;}
</style>
<g>
	<g>
		<path class="st0" d="M77.3,2.2h13.4l7.7,18.4l2.7,7.2h0.3l2.7-7.2l7.4-18.4h13.4v44.2h-12V33.4c0-4.5,1.1-11.4,1.7-15.8h-0.3
			L110,27.9l-6.8,14.9h-4.8l-6.8-14.9l-3.9-10.3h-0.3c0.6,4.4,1.7,11.3,1.7,15.8v13.1H77.3V2.2z"/>
		<path class="st0" d="M127.5,24.1c0-14.6,9.2-22.7,22.7-22.7s22.7,8.2,22.7,22.7c0,14.6-9.2,23.1-22.7,23.1S127.5,38.7,127.5,24.1z
			 M159.6,24.1c0-8-3.6-12.7-9.5-12.7c-5.9,0-9.5,4.6-9.5,12.7c0,8,3.6,13.1,9.5,13.1C156,37.2,159.6,32.2,159.6,24.1z"/>
		<path class="st0" d="M175.3,2.2h12.9v24.2c0,7.9,2.3,10.7,7.4,10.7c5.1,0,7.5-2.9,7.5-10.7V2.2h12.5v22.9c0,15.1-6.3,22.2-20,22.2
			c-13.7,0-20.3-7.1-20.3-22.2V2.2z"/>
		<path class="st0" d="M220.1,2.2h14.4c14.9,0,25.1,6.3,25.1,21.9c0,15.6-10.2,22.3-24.4,22.3h-15.2V2.2z M233.8,37.1
			c7.1,0,12.6-2.6,12.6-12.9c0-10.3-5.6-12.5-12.6-12.5H233v25.4H233.8z"/>
		<path class="st0" d="M284.7,37.1h-13.7l-2.4,9.4h-13.2l14.9-44.2h15.6l14.9,44.2h-13.7L284.7,37.1z M282.4,28l-0.8-3.1
			c-1.2-4.2-2.4-9.6-3.6-14h-0.3c-1.1,4.5-2.3,9.8-3.5,14l-0.8,3.1H282.4z"/>
	</g>
	<g>
		<path class="st0" d="M26.3,8.9c1.2-3.3-0.5-6.9-3.8-8.1c-3.3-1.2-6.9,0.5-8.1,3.8c0,0.1,0,0.2-0.1,0.3l0,0L1.2,41.1
			C0,44.3,1.7,48,5,49.2c3.3,1.2,6.9-0.5,8.1-3.8L26.2,9.2l0,0C26.2,9.1,26.3,9,26.3,8.9z"/>
		<linearGradient id="SVGID_1_" gradientUnits="userSpaceOnUse" x1="53.7922" y1="-15.6176" x2="26.9743" y2="66.9247">
			<stop  offset="0" style="stop-color:#C30D23"/>
			<stop  offset="9.343886e-03" style="stop-color:#C30D23"/>
			<stop  offset="0.2809" style="stop-color:#C30D23"/>
			<stop  offset="0.6685" style="stop-color:#E83828"/>
			<stop  offset="0.8876" style="stop-color:#C30D23"/>
			<stop  offset="1" style="stop-color:#E5352B"/>
		</linearGradient>
		<path class="st1" d="M53.2,8.9c1.2-3.3-0.5-6.9-3.8-8.1c-3.3-1.2-6.9,0.5-8.1,3.8c0,0.1,0,0.2-0.1,0.3l0,0L28,41.1
			c-1.2,3.3,0.5,6.9,3.8,8.1c3.3,1.2,6.9-0.5,8.1-3.8L53,9.2l0,0C53.1,9.1,53.1,9,53.2,8.9z"/>
		<linearGradient id="SVGID_2_" gradientUnits="userSpaceOnUse" x1="65.8251" y1="-11.7083" x2="39.007" y2="70.8347">
			<stop  offset="0" style="stop-color:#C30D23"/>
			<stop  offset="9.343886e-03" style="stop-color:#C30D23"/>
			<stop  offset="0.2809" style="stop-color:#C30D23"/>
			<stop  offset="0.6685" style="stop-color:#E83828"/>
			<stop  offset="0.8876" style="stop-color:#C30D23"/>
			<stop  offset="1" style="stop-color:#E5352B"/>
		</linearGradient>
		<path class="st2" d="M41.3,8.9c-1.2-3.3,0.5-6.9,3.8-8.1c3.3-1.2,6.9,0.5,8.1,3.8c0,0.1,0,0.2,0.1,0.3l0,0l13.2,36.2
			c1.2,3.3-0.5,6.9-3.8,8.1c-3.3,1.2-6.9-0.5-8.1-3.8L41.4,9.2l0,0C41.4,9.1,41.4,9,41.3,8.9z"/>
		<linearGradient id="SVGID_3_" gradientUnits="userSpaceOnUse" x1="41.2444" y1="-19.6948" x2="14.4263" y2="62.8482">
			<stop  offset="0" style="stop-color:#C30D23"/>
			<stop  offset="9.343886e-03" style="stop-color:#C30D23"/>
			<stop  offset="0.2809" style="stop-color:#C30D23"/>
			<stop  offset="0.6685" style="stop-color:#E83828"/>
			<stop  offset="0.8876" style="stop-color:#C30D23"/>
			<stop  offset="1" style="stop-color:#E5352B"/>
		</linearGradient>
		<path class="st3" d="M39.6,41.1L26.5,4.9l0,0c0-0.1,0-0.2-0.1-0.3c-1.2-3.3-4.8-5-8.1-3.8c-1.9,0.7-3.3,2.2-3.8,4.1l0,0L8.3,21.5
			c0,0,7-4.7,12.1,3.7c0,0,0,0,0,0L27.7,45l0,0l0,0l0.1,0.3c1.2,3.3,4.8,5,8.1,3.8C39.1,48,40.8,44.3,39.6,41.1z"/>
	</g>
</g>
</svg>
