<?xml version="1.0" encoding="utf-8"?>
<!-- Generator: Adobe Illustrator 22.1.0, SVG Export Plug-In . SVG Version: 6.00 Build 0)  -->
<svg version="1.1" id="레이어_1" xmlns="http://www.w3.org/2000/svg" xmlns:xlink="http://www.w3.org/1999/xlink" x="0px"
	 y="0px" viewBox="0 0 141.2 33.2" style="enable-background:new 0 0 141.2 33.2;" xml:space="preserve">
<style type="text/css">
	.st0{fill:#FFFFFF;}
	.st1{fill:#F39D17;}
</style>
<g>
	<g>
		<path class="st0" d="M47.3,24.3c3.4,0,3.9-1.6,3.9-2.8c0-1.6-2-2.5-4.2-3.1c-3.3-1-7.2-2.7-7.2-6.7c0-3.4,1.7-5.8,7.5-5.8
			c3.7,0,5.4,0.9,5.4,0.9C52.8,6.9,53,7,53,7.1c0,0,0.3,2.3,0.3,2.4c0,0.2-0.1,0.3-0.3,0.3s-2.4-0.9-5.7-0.9c-3.4,0-3.9,1.6-3.9,2.8
			c0,1.6,2,2.5,4.2,3.1c3.3,1,7.2,2.7,7.2,6.7c0,3.4-1.7,5.8-7.5,5.8c-4,0-6.6-1.2-6.6-1.2c-0.1-0.1-0.3-0.2-0.3-0.3
			c0,0-0.3-2.3-0.3-2.4c0-0.2,0.2-0.3,0.3-0.3C40.6,23.1,44.2,24.3,47.3,24.3z"/>
	</g>
	<g>
		<path class="st0" d="M70.7,6.3C70.8,6.1,71,6,71.1,6h3.3c0.2,0,0.3,0.1,0.3,0.3c0,0.1-5.1,8.4-7.2,11.8v8.5c0,0.2-0.1,0.3-0.3,0.3
			h-3c-0.2,0-0.3-0.1-0.3-0.3v-8.5c0,0-7-11.4-7-11.5c0-0.2,0.1-0.3,0.3-0.3c0,0,3-0.3,3.1-0.3c0.2,0,0.4,0.1,0.4,0.3l4.9,9.3
			L70.7,6.3z"/>
	</g>
	<g>
		<path class="st0" d="M81.7,9.6v17.1c0,0.2-0.1,0.3-0.3,0.3h-3c-0.2,0-0.3-0.1-0.3-0.3V6.6c0-0.2,0.1-0.3,0.3-0.3L83.2,6
			c0.1,0,0.2,0.1,0.3,0.3l7.8,17.1V6.6c0-0.2,0.1-0.3,0.3-0.3l3-0.3c0.2,0,0.3,0.1,0.3,0.3v20.4c0,0.2-0.1,0.3-0.3,0.3h-4.8
			c-0.2,0-0.2-0.1-0.3-0.3L81.7,9.6z"/>
	</g>
	<g>
		<path class="st0" d="M109.8,8.7c-5.4,0-6.1,4.6-6.1,7.8c0,3.1,0.7,7.8,6.1,7.8c2.1,0,4.9-0.6,5.1-0.6c0.1,0,0.3,0.1,0.3,0.3
			c0,0,0.3,2.3,0.3,2.4c0,0.2-0.1,0.3-0.3,0.3c-0.2,0-2.5,0.6-5.4,0.6c-9,0-9.9-6.5-9.9-10.8s0.9-10.8,9.9-10.8
			c2.6,0,5.1,0.9,5.1,0.9c0.2,0.1,0.3,0.2,0.3,0.3c0,0,0.3,2.3,0.3,2.4c0,0.2-0.1,0.3-0.3,0.3C115.1,9.6,111.9,8.7,109.8,8.7z"/>
	</g>
	<g>
		<path class="st0" d="M129,5.7c7.3,0,9.6,4.8,9.6,10.8s-2.2,10.8-9.6,10.8c-7.3,0-9.6-4.8-9.6-10.8S121.6,5.7,129,5.7z M129,24.3
			c4.6,0,5.8-3.6,5.8-7.8s-1.2-7.8-5.8-7.8c-4.6,0-5.8,3.6-5.8,7.8C123.1,20.7,124.3,24.3,129,24.3z"/>
	</g>
</g>
<g>
	<path class="st0" d="M25.6,8.9l-9.7-5.6c-0.7-0.4-1.6-0.4-2.4,0L3.9,8.9c-0.7,0.4-1.2,1.2-1.2,2v11.2c0,0.8,0.4,1.6,1.2,2l9.7,5.6
		c0.7,0.4,1.6,0.4,2.4,0l9.7-5.6c0.7-0.4,1.2-1.2,1.2-2V10.9C26.8,10.1,26.4,9.3,25.6,8.9z M24.9,23.7L24.9,23.7l-9.7,5.6L15,29.4
		c-0.1,0-0.1,0-0.2,0c-0.1,0-0.2,0-0.2,0l-0.1-0.1l-2.8-1.6c0,0,7.1-3.8,7.1-3.8c0.1-0.1,0.2-0.2,0.2-0.4c0-0.2-0.1-0.3-0.2-0.4
		c0,0-5.9-3.4-5.9-3.4c0,0,0,0,0,0c-0.1,0-0.1-0.1-0.2-0.1c-0.1,0-0.2,0-0.2,0.1c0,0,0,0,0,0l-6.6,3.5l0,0c-0.2,0.1-0.5,0.2-0.8,0.2
		c-0.8,0-1.4-0.6-1.4-1.4V10.3c0-0.2,0.1-0.3,0.2-0.4l0,0c0,0,9.9-5.7,10-5.7c0,0,0.1,0,0.1,0c0.2,0,0.4,0.2,0.5,0.4
		c0,0,0,0.1,0,0.1s0,2.8,0,2.8S7,11.6,6.9,11.7c-0.1,0.1-0.1,0.2-0.1,0.3c0,0,0,0.1,0,0.1c0,0,0,5.8,0,5.9s0,0.1,0,0.1
		c0.1,0.2,0.3,0.4,0.5,0.4c0.1,0,0.1,0,0.2,0l0.1-0.1l5.9-3.5l0,0c0.1,0,0.2-0.1,0.3-0.1c0.3,0,0.5,0.2,0.5,0.5v0v1.5l10.6,6.1l0,0
		c0.1,0.1,0.2,0.2,0.2,0.4C25.1,23.4,25,23.6,24.9,23.7z"/>
	<g>
		<path class="st1" d="M15.4,16.4L15.4,16.4L26,22.5v-3v-0.1c0-0.1-0.1-0.2-0.2-0.3c0,0-0.1-0.1-0.1-0.1l-7-4.1c0,0,0,0-0.1,0
			c-0.1-0.1-0.2-0.2-0.2-0.4c0,0,0,0,0,0s0,0,0,0V9.8c0,0,0,0,0,0s0,0,0,0c0-0.3,0.2-0.5,0.5-0.5c0.1,0,0.2,0,0.2,0.1
			c0,0,6.1,3.6,6.1,3.6c0.1,0,0.2,0.1,0.3,0.1c0.3,0,0.5-0.2,0.5-0.4V10L15.9,4.2l0,0c-0.1,0-0.1-0.1-0.2-0.1
			c-0.3,0-0.5,0.2-0.5,0.5V16C15.2,16.2,15.3,16.3,15.4,16.4z"/>
	</g>
	<g>
		<path class="st1" d="M15.4,16.4L15.4,16.4L26,22.5v-3v-0.1c0-0.1-0.1-0.2-0.2-0.3c0,0-0.1-0.1-0.1-0.1l-7-4.1c0,0,0,0-0.1,0
			c-0.1-0.1-0.2-0.2-0.2-0.4c0,0,0,0,0,0s0,0,0,0V9.8c0,0,0,0,0,0s0,0,0,0c0-0.3,0.2-0.5,0.5-0.5c0.1,0,0.2,0,0.2,0.1
			c0,0,6.1,3.6,6.1,3.6c0.1,0,0.2,0.1,0.3,0.1c0.3,0,0.5-0.2,0.5-0.4V10L16,4.2l0,0c-0.1,0-0.1-0.1-0.2-0.1c-0.3,0-0.5,0.2-0.5,0.5
			V16C15.2,16.1,15.3,16.3,15.4,16.4z"/>
	</g>
</g>
</svg>
